<?xml version="1.0" encoding="utf-8"?>
<!-- Generator: Adobe Illustrator 19.2.0, SVG Export Plug-In . SVG Version: 6.00 Build 0)  -->
<svg version="1.1" id="Layer_1" xmlns="http://www.w3.org/2000/svg" xmlns:xlink="http://www.w3.org/1999/xlink" x="0px" y="0px"
	 viewBox="0 0 124.4 144" style="enable-background:new 0 0 124.4 144;" xml:space="preserve">
<style type="text/css">
	.st0{display:none;}
	.st1{display:inline;fill:none;stroke:#BD8F2D;stroke-width:0.5;stroke-miterlimit:10;}
	.st2{fill:#BD8F2D;}
	.st3{fill:none;stroke:#BD8F2D;stroke-width:0.8;stroke-miterlimit:10;}
	.st4{fill:none;stroke:#BC8F2D;stroke-miterlimit:10;}
	.st5{fill:none;stroke:#BD8F2D;stroke-width:0.7407;stroke-miterlimit:10;}
	.st6{fill:none;stroke:#BD8F2D;stroke-width:0.7644;stroke-miterlimit:10;}
</style>
<g id="Layer_3">
	<polygon points="0,36 62.2,0 124.4,36 124.4,108 62.2,144 0,108 	"/>
</g>
<g id="Layer_2" class="st0">
	<circle class="st1" cx="4.1" cy="55.8" r="1.4"/>
	<circle class="st1" cx="7.9" cy="59.6" r="1.5"/>
	<circle class="st1" cx="12.2" cy="63.4" r="1.5"/>
	<circle class="st1" cx="17" cy="67" r="1.5"/>
	<circle class="st1" cx="23" cy="69.9" r="1.4"/>
	<circle class="st1" cx="30.6" cy="72.5" r="1.5"/>
	<polyline class="st1" points="5.6,55.8 42.7,55.8 42.6,54.3 50.1,54.1 50,51.7 121.9,51.7 121.9,54.9 120.8,54.8 120.9,59 
		118.8,59 118.9,52.6 116.9,52.6 116.9,59.4 114.7,59.4 114.7,52.4 112.6,52.4 112.6,60.3 110,60.3 110,52.5 107.8,52.5 107.8,60.9 
		105.1,60.9 105.1,52.4 102.8,52.4 102.8,61.6 84.3,75.5 83.9,87.6 94.4,91.7 101.4,99.1 101.4,107 17,107 	"/>
	<polyline class="st1" points="9.4,59.6 44.1,59.6 44.2,56.9 52,57 51.9,53.3 101.2,53.3 101.2,59.6 99.4,61.4 99.4,54.8 97.2,54.8 
		97.2,62.7 95.2,64.6 95.2,54.7 92.8,54.7 92.6,66.3 90.1,68.5 90.1,54.7 87.2,54.7 87.2,70.4 84.9,72.5 84.9,54.8 82,54.8 82,88.6 
		93.4,93.2 99.1,99.3 86.9,99.3 86.9,104.2 88.9,104.2 88.9,100.6 90.8,100.6 90.8,104.2 93,104.2 93,100.6 95.2,100.6 95.2,104.2 
		97.4,104.2 97.4,100.6 99.6,100.6 99.6,105.4 17,105.4 	"/>
	<polyline class="st1" points="13.6,63.4 45.9,63.4 45.9,59.1 53.9,59.1 53.9,55.1 80.2,55.1 80.3,89.9 92.4,94.6 95.5,97.9 
		87.3,97.9 86.1,96.7 92.5,96.6 91.5,95.6 85.2,95.7 83.7,94.5 89.9,94.5 86.9,93.6 82.4,93.5 80.9,92.7 84.2,92.7 81.8,91.4 
		79.7,91.4 78.7,90.5 78.7,102.9 80.2,102.9 80.2,93.3 81.4,94 81.4,102.9 82.6,102.9 82.6,94.8 83.7,96 83.7,102.9 84.8,102.9 
		84.8,96.6 85.9,98 85.9,103.9 17,103.9 	"/>
	<polyline class="st1" points="18.5,67 47.8,67 47.8,61.1 55.7,61.1 55.7,57 78.2,57 78.2,88.8 76.6,88.8 76.7,102.6 75.1,102.6 
		75.2,88.4 73.7,87.7 73.8,102.6 72.1,102.6 72,87.4 70.4,87.4 70.4,102.6 68.7,102.6 68.8,87.3 67.1,87.9 67,102.6 65.5,102.6 
		65.5,88.8 63.7,89.7 63.7,102.6 61.8,102.6 61.9,90.8 59.9,92.3 59.9,102.6 58,102.6 58,94.1 56.3,95.4 56.4,102.6 54.8,102.6 
		54.9,96.8 53,98.4 52.9,102.6 17,102.6 	"/>
	<polyline class="st1" points="24.4,69.9 50.3,69.9 50.3,63.4 57.3,63.4 57.2,59 75.8,59 76,87.3 74,86.3 74,60.7 72.4,60.7 
		72.4,86.3 70.4,86.3 70.4,60.7 68.7,60.7 68.7,86.3 66.8,86.9 66.8,60.7 65.3,60.7 65.5,87.3 63.4,88.6 63.4,60.7 61.7,60.7 
		61.7,89.3 60.2,90.4 60.2,60.7 58.5,60.7 58.5,91.5 51.4,97.5 51.3,100.9 17,100.9 	"/>
	<polyline class="st1" points="32.1,72.5 52.5,72.5 52.5,65.6 56.9,65.6 56.9,67 53.8,67 53.8,68.5 56.9,68.5 56.9,69.9 53.8,69.9 
		53.8,71.4 56.9,71.4 56.9,73.1 53.8,73 53.8,74.7 56.9,74.7 56.9,76.6 53.8,76.6 55.3,78.2 56.9,78.2 56.9,80 56.9,86.9 45,91.9 
		39.7,97.4 42.8,97.3 46.2,93 56.9,88 56.9,89.6 47.4,94.3 45.3,97.3 47.5,97.3 48.4,95.4 56.9,90.5 56.9,91.5 49.8,97.2 49.8,100 
		48.4,100 48.4,98.2 47.1,98.2 47.1,100.1 45.7,100.1 45.7,98.2 44.5,98.2 44.5,100.1 43.3,100.1 43.3,98.2 42.1,98.2 42.1,100.1 
		41.1,100.1 41.1,98.2 39.9,98.2 39.9,100.2 39.1,100.2 39.1,99 17,99 	"/>
</g>
<g id="Layer_4">
	<path class="st2" d="M8.6,57.6c0,0,3.4,5.8,9.6,10.6c2.6,2,7.5,4.8,14.3,6.4c9.1,2.2,21.4,3.7,21.4,3.7L54,86c0,0-2.8,1-7.9,4.5
		c-5.1,3.5-6.7,5.3-6.7,5.3v8.2h18.6c0,0,3.6-3.9,9.4-4s9.1,4,9.1,4h18.7v-7.1c0,0-1.8-2.8-7.1-5.9c-5.3-3.2-8.2-4.9-8.2-4.9l0-7.8
		l16.6-14.6h17.1v-9.2H49.3l-0.2,3H8.6z"/>
	<circle class="st3" cx="12.1" cy="76.8" r="2.2"/>
	<circle class="st3" cx="16.6" cy="83.3" r="2.2"/>
	<circle class="st3" cx="22.1" cy="89.4" r="2.2"/>
	<polyline class="st3" points="22.1,91.6 22.1,103.9 76.6,135.4 	"/>
	<polyline class="st3" points="16.6,85.6 16.6,105.4 71.9,138.2 	"/>
	<polyline class="st3" points="12.1,79.1 12.1,108.9 67,141 	"/>
	<path class="st3" d="M14.4,107.8"/>
	<path class="st3" d="M9.9,110.4"/>
	<path class="st3" d="M9.9,110.4"/>
	<circle class="st3" cx="119.3" cy="39.4" r="2.2"/>
	<circle class="st3" cx="107.2" cy="38.6" r="2.2"/>
	<circle class="st3" cx="95.8" cy="36" r="2.2"/>
	<line class="st3" x1="93.9" y1="35.1" x2="47.7" y2="8.3"/>
	<line class="st3" x1="105.6" y1="37.1" x2="52.4" y2="5.6"/>
	<line class="st3" x1="57.3" y1="2.8" x2="117.9" y2="38.2"/>
	<circle class="st3" cx="103.4" cy="68.2" r="2.2"/>
	<circle class="st3" cx="93.9" cy="73.4" r="2.2"/>
	<circle class="st3" cx="87.6" cy="81.1" r="2.2"/>
	<circle class="st3" cx="93.9" cy="87.8" r="2.2"/>
	<circle class="st3" cx="103.4" cy="92.8" r="2.2"/>
	<line class="st3" x1="105.6" y1="68.2" x2="124.4" y2="68.2"/>
	<line class="st3" x1="96.2" y1="73.4" x2="124.4" y2="73.4"/>
	<line class="st3" x1="89.9" y1="81.1" x2="124.4" y2="81.1"/>
	<line class="st3" x1="96.2" y1="87.8" x2="124.4" y2="87.8"/>
	<line class="st3" x1="105.6" y1="92.8" x2="124.4" y2="92.8"/>
	<circle class="st3" cx="4.6" cy="51.7" r="2.2"/>
	<circle class="st3" cx="12.7" cy="51.7" r="2.2"/>
	<circle class="st3" cx="21.1" cy="51.7" r="2.2"/>
	<circle class="st3" cx="29.2" cy="51.7" r="2.2"/>
	<circle class="st3" cx="37.6" cy="51.7" r="2.2"/>
	<circle class="st3" cx="45.7" cy="51.7" r="2.2"/>
	<polyline class="st4" points="45.7,49.5 45.7,45.4 91.1,45.4 91.1,37.7 42.2,11.6 	"/>
	<line class="st4" x1="4.6" y1="49.5" x2="4.6" y2="33.7"/>
	<line class="st4" x1="12.7" y1="49.5" x2="12.7" y2="28.7"/>
	<polyline class="st4" points="37.6,49.5 37.6,40.8 84.7,40.8 84.7,39.1 37.6,14.3 	"/>
	<polyline class="st4" points="29.2,49.5 29.2,36 70.6,36.3 31.4,17.8 	"/>
	<polyline class="st4" points="21.1,49.5 21.1,31.9 45.7,31.9 24.7,21.7 	"/>
	<circle class="st3" cx="49.3" cy="112.7" r="2.2"/>
	<circle class="st3" cx="57.8" cy="111.9" r="2.2"/>
	<line class="st3" x1="50.4" y1="114.1" x2="82.1" y2="132.5"/>
	<line class="st3" x1="60.1" y1="112.7" x2="87.6" y2="129.3"/>
	<circle class="st3" cx="111.4" cy="99.6" r="2.2"/>
	<line class="st3" x1="113.7" y1="99.6" x2="124.4" y2="99.6"/>
	<circle class="st3" cx="105.6" cy="105.5" r="2.2"/>
	<line class="st3" x1="107.9" y1="105.5" x2="124.4" y2="105.5"/>
	<circle class="st3" cx="102.4" cy="110.9" r="2.2"/>
	<circle class="st3" cx="95.8" cy="112.9" r="2.2"/>
	<circle class="st3" cx="68.3" cy="110" r="2.2"/>
	<line class="st5" x1="102.4" y1="113.1" x2="102.4" y2="121"/>
	<line class="st6" x1="95.8" y1="115.2" x2="95.8" y2="124.6"/>
	<line class="st3" x1="69.6" y1="111.9" x2="92.5" y2="126.5"/>
</g>
<rect x="59.9" y="65.6" width="4.7" height="24.4"/>
<rect x="69.5" y="65.6" width="4.7" height="24.4"/>
</svg>
