<svg xmlns="http://www.w3.org/2000/svg" width="300" height="68.679"><defs><clipPath id="a"><path d="M32.346 215.132h90.817v20.79H32.346v-20.79z"/></clipPath></defs><g clip-path="url(#a)" transform="matrix(3.30335 0 0 -3.30335 -106.85 779.337)"><path d="M44.015 224.413c-.352-.264-2.182-1.672-5.14-1.672-3.748 0-6.53 2.694-6.53 6.548 0 3.432 2.29 6.635 6.69 6.635 2.252 0 3.73-.72 4.646-1.62l-1.25-1.636a5.43 5.43 0 0 1-3.43 1.215c-2.64 0-4.33-2.035-4.33-4.56 0-3.106 2.094-4.61 4.276-4.61 1.743 0 2.8.704 2.975.827v2.375h-3.15v1.883h5.245v-5.385zM53.132 227.564v.035c0 1.636-1.18 2.956-2.85 2.956-1.708 0-2.8-1.303-2.8-2.922v-.035c0-1.62 1.18-2.94 2.834-2.94 1.725 0 2.816 1.302 2.816 2.904m2.13.035c0-2.64-2.112-4.788-4.98-4.788-2.835 0-4.93 2.112-4.93 4.752v.035c0 2.657 2.113 4.82 4.964 4.82 2.85 0 4.946-2.128 4.946-4.786v-.035zM58.73 222.952H56.6V235.8h2.13v-12.848zM67.687 227.6c0 2.023-1.443 2.956-2.746 2.956-1.266 0-2.726-.88-2.726-2.94 0-1.59 1.02-2.974 2.763-2.974 1.68 0 2.71 1.214 2.71 2.957m2.094-4.647h-2.023v1.232c-.545-.845-1.795-1.426-3.097-1.426-2.446 0-4.594 1.74-4.594 4.82v.054c0 2.253 1.338 4.805 4.682 4.805 1.302 0 2.446-.547 2.904-1.25v4.61h2.13v-12.847zM78.335 225.645c0-1.866-1.513-2.87-3.45-2.87-2.252 0-3.766 1.04-3.907 1.198l.916 1.514c.968-.67 2.04-.986 2.992-.986.88 0 1.284.388 1.284 1.022 0 .686-.808.9-1.9 1.302-1.443.53-2.87 1.003-2.87 2.728v.035c0 1.76 1.497 2.852 3.345 2.852 1.16 0 2.446-.318 3.432-.97l-.81-1.566c-.897.546-1.865.81-2.534.81-.81 0-1.303-.335-1.303-.933 0-.774 1.268-1.07 1.954-1.32 1.356-.49 2.85-1.073 2.85-2.815M97.75 233.21h-2.13v2.058h2.13v-2.06zM97.75 222.948h-2.13v9.293h2.13v-9.292zM105.58 223.423c-.087-.06-.914-.634-2.357-.634-1.848 0-2.887.897-2.887 2.903v4.858H98.98v1.69h1.374v3.028h2.112v-3.027h2.675v-1.69h-2.674v-4.505c0-.51.052-.844.317-1.108.21-.212.51-.317.88-.317.545 0 1.038.176 1.284.3l.634-1.497zM114.768 222.948h-2.13v4.946c0 1.53-.263 2.64-1.812 2.64-1.85 0-1.99-1.716-1.99-2.904v-4.682h-2.13v12.848h2.13v-4.506c.413.54 1.233 1.144 2.465 1.144 1.268 0 2.038-.383 2.57-.915.912-.912.898-2.394.898-2.94v-5.632zM123.163 225.64c0-1.865-1.514-2.868-3.45-2.868-2.252 0-3.766 1.04-3.907 1.197l.915 1.513c.97-.67 2.043-.986 2.993-.986.88 0 1.285.387 1.285 1.02 0 .687-.808.9-1.9 1.303-1.443.53-2.87 1.003-2.87 2.728v.035c0 1.76 1.497 2.852 3.345 2.852 1.16 0 2.446-.317 3.432-.97l-.81-1.565c-.898.546-1.866.81-2.534.81-.81 0-1.302-.335-1.302-.933 0-.774 1.268-1.072 1.954-1.32 1.356-.49 2.85-1.074 2.85-2.816M93.77 222.95h-2.13v4.944c0 1.532-.265 2.64-1.813 2.64-1.85 0-1.99-1.716-1.99-2.904v-4.68h-2.13v4.944c0 1.532-.316 2.64-1.864 2.64-1.672 0-1.936-1.494-1.936-2.64v-4.945h-2.13v9.292H81.8v-1.127c.5.698 1.328 1.338 2.64 1.338 1.418 0 2.268-.565 2.782-1.55.47.638 1.425 1.532 3.08 1.532 1.267 0 2.038-.383 2.57-.915.91-.912.897-2.394.897-2.94v-5.63zM59.423 216.664c0-.467-.04-1.523-1.42-1.523-1.368 0-1.404 1.147-1.404 1.437v1.835h.762v-1.854c0-.507.23-.754.65-.754.652 0 .647.553.647.73v1.878h.763v-1.748zM63.3 215.192h-.597l-1.504 1.983v-1.983h-.72v3.22h.654l1.468-1.937v1.937h.7v-3.22zM65.168 215.192h-.764v3.22h.764v-3.22zM69.17 218.412l-1.27-3.22h-.685l-1.274 3.22h.83l.804-2.203.814 2.202h.782zM72.303 215.192h-2.36v3.22h2.323v-.612h-1.564v-.68h1.37v-.608h-1.37v-.7h1.6v-.62zM75.182 217.354c0 .427-.396.46-.685.46h-.4v-.92h.367c.293 0 .718.007.718.46m.957-2.162h-.862l-.745 1.136h-.437v-1.136h-.76v3.22h1.243c.25 0 .736-.005 1.025-.294.148-.148.294-.37.294-.755a.89.89 0 0 0-.63-.9l.87-1.27zM79.212 216.135c0-.658-.504-1.003-1.196-1.003-.667 0-1.142.252-1.28.364l.296.538c.117-.058.51-.285.984-.285.347 0 .474.135.474.34 0 .282-.352.327-.612.408-.425.134-1.058.327-1.058 1.017 0 .584.467.952 1.182.952.545 0 1.02-.223 1.118-.308l-.253-.544c-.048.023-.455.235-.874.235-.313 0-.455-.103-.455-.312 0-.228.307-.312.67-.42.486-.14 1.004-.34 1.004-.983M80.94 215.192h-.763v3.22h.764v-3.22zM84.502 217.8h-.998v-2.607h-.764v2.608h-.998v.613h2.76v-.612zM88.223 218.412l-1.196-1.94v-1.28h-.764v1.28l-1.21 1.94h.893l.722-1.224.76 1.224h.795zM93.512 216.793v.01c0 .575-.39.993-.934.993-.56 0-.924-.416-.924-.984v-.01c0-.556.374-.993.933-.993.56 0 .925.418.925.983m.782.01c0-.916-.722-1.666-1.716-1.666-.993 0-1.706.74-1.706 1.656v.01c0 .915.722 1.664 1.715 1.664.994 0 1.707-.74 1.707-1.655v-.01zM97.445 217.8H95.94v-.735h1.298v-.607H95.94v-1.265h-.763v3.22h2.268v-.612zM102.6 215.192h-2.314v3.22h.764v-2.6h1.55v-.62zM105.793 216.793v.01c0 .575-.39.993-.934.993-.56 0-.925-.416-.925-.984v-.01c0-.556.374-.993.933-.993.56 0 .925.418.925.983m.782.01c0-.916-.722-1.666-1.716-1.666s-1.707.74-1.707 1.656v.01c0 .915.722 1.664 1.715 1.664.994 0 1.707-.74 1.707-1.655v-.01zM110.278 215.192h-.598l-1.504 1.983v-1.983h-.718v3.22h.653l1.47-1.937v1.937h.698v-3.22zM113.616 216.79c0 .293-.087.57-.267.75-.258.256-.567.266-.764.266h-.447v-2h.413c.25 0 .555.015.8.26.17.17.263.415.263.723m.8.013c0-.44-.15-.846-.437-1.132-.4-.4-.895-.477-1.468-.477h-1.132v3.22h1.325c.498 0 .934-.138 1.256-.46.28-.28.456-.685.456-1.15M117.775 216.793v.01c0 .575-.39.993-.934.993-.558 0-.923-.416-.923-.984v-.01c0-.556.374-.993.933-.993.56 0 .925.418.925.983m.782.01c0-.916-.722-1.666-1.716-1.666-.992 0-1.705.74-1.705 1.656v.01c0 .915.722 1.664 1.715 1.664.994 0 1.707-.74 1.707-1.655v-.01zM122.26 215.192h-.598l-1.504 1.983v-1.983h-.718v3.22h.653l1.468-1.937v1.937h.7v-3.22z" fill="#cba569"/></g></svg>