<svg xmlns="http://www.w3.org/2000/svg" width="328.82" height="153.07" viewBox="0 0 328.82 153.07"><path d="M111.193 43.125l62.22-36 62.222 36v72l-62.22 36-62.222-36z"/><path fill="#BD8F2D" d="M113 62.223s4.848 5.077 11.8 10.462c2.853 2.21 9.624 7.07 16.825 8.26 10.338 1.71 24.75.5 24.75.5l.118 12.603s-3.08 1.147-8.787 5.022-7.457 5.875-7.457 5.875v9.187H171s4-4.312 10.5-4.437 10.125 4.437 10.125 4.437h20.92v-7.927s-1.99-3.08-7.92-6.635-9.564-5.098-9.564-5.098l.41-12.15L214 69.124h19.068V58.837h-71.872L161 62.223h-48z"/><circle fill="none" stroke="#BD8F2D" stroke-width=".8" stroke-miterlimit="10" cx="123.334" cy="83.929" r="2.25"/><circle fill="none" stroke="#BD8F2D" stroke-width=".8" stroke-miterlimit="10" cx="127.834" cy="90.429" r="2.25"/><circle fill="none" stroke="#BD8F2D" stroke-width=".8" stroke-miterlimit="10" cx="133.25" cy="96.512" r="2.25"/><path fill="none" stroke="#BD8F2D" stroke-width=".8" stroke-miterlimit="10" d="M133.25 98.762v12.25l54.527 31.547"/><path fill="none" stroke="#BD8F2D" stroke-width=".8" stroke-miterlimit="10" d="M127.834 92.68v19.894l55.22 32.718"/><path fill="none" stroke="#BD8F2D" stroke-width=".8" stroke-miterlimit="10" d="M123.334 86.18v29.832l54.816 32.116"/><circle fill="none" stroke="#BD8F2D" stroke-width=".8" stroke-miterlimit="10" cx="230.541" cy="46.49" r="2.25"/><circle fill="none" stroke="#BD8F2D" stroke-width=".8" stroke-miterlimit="10" cx="218.362" cy="45.691" r="2.25"/><circle fill="none" stroke="#BD8F2D" stroke-width=".8" stroke-miterlimit="10" cx="206.961" cy="43.108" r="2.25"/><path fill="none" stroke="#BD8F2D" stroke-width=".8" stroke-miterlimit="10" d="M205.114 42.202L158.892 15.46M216.802 44.24l-53.186-31.513M168.52 9.89l60.56 35.468"/><circle fill="none" stroke="#BD8F2D" stroke-width=".8" stroke-miterlimit="10" cx="214.552" cy="75.32" r="2.25"/><circle fill="none" stroke="#BD8F2D" stroke-width=".8" stroke-miterlimit="10" cx="205.114" cy="80.57" r="2.25"/><circle fill="none" stroke="#BD8F2D" stroke-width=".8" stroke-miterlimit="10" cx="198.799" cy="88.179" r="2.25"/><circle fill="none" stroke="#BD8F2D" stroke-width=".8" stroke-miterlimit="10" cx="205.114" cy="94.929" r="2.25"/><circle fill="none" stroke="#BD8F2D" stroke-width=".8" stroke-miterlimit="10" cx="214.552" cy="99.945" r="2.25"/><path fill="none" stroke="#BD8F2D" stroke-width=".8" stroke-miterlimit="10" d="M216.802 75.32h18.833M207.364 80.57h28.27M201.05 88.18h34.585M207.364 94.93h28.27M216.802 99.945h18.833"/><circle fill="none" stroke="#BD8F2D" stroke-width=".8" stroke-miterlimit="10" cx="115.75" cy="58.837" r="2.25"/><circle fill="none" stroke="#BD8F2D" stroke-width=".8" stroke-miterlimit="10" cx="123.875" cy="58.838" r="2.25"/><circle fill="none" stroke="#BD8F2D" stroke-width=".8" stroke-miterlimit="10" cx="132.25" cy="58.838" r="2.25"/><circle fill="none" stroke="#BD8F2D" stroke-width=".8" stroke-miterlimit="10" cx="140.375" cy="58.838" r="2.25"/><circle fill="none" stroke="#BD8F2D" stroke-width=".8" stroke-miterlimit="10" cx="181.75" cy="69.837" r="2.25"/><circle fill="none" stroke="#BD8F2D" stroke-width=".8" stroke-miterlimit="10" cx="189.875" cy="69.838" r="2.25"/><circle fill="none" stroke="#BD8F2D" stroke-width=".8" stroke-miterlimit="10" cx="148.75" cy="58.839" r="2.25"/><circle fill="none" stroke="#BD8F2D" stroke-width=".8" stroke-miterlimit="10" cx="156.875" cy="58.839" r="2.25"/><path fill="none" stroke="#BC8F2D" stroke-miterlimit="10" d="M156.875 56.59v-4.02h45.375v-7.75l-48.88-26.1M115.75 56.587v-15.73M123.875 56.588v-20.8"/><path fill="none" stroke="#BC8F2D" stroke-miterlimit="10" d="M148.75 56.59v-8.65h47.125V46.19L148.75 21.395"/><path fill="none" stroke="#BC8F2D" stroke-miterlimit="10" d="M140.375 56.588v-13.48l41.375.333-39.125-18.502"/><path fill="none" stroke="#BC8F2D" stroke-miterlimit="10" d="M132.25 56.588V38.992h24.625l-20.977-10.16"/><circle fill="none" stroke="#BD8F2D" stroke-width=".8" stroke-miterlimit="10" cx="160.514" cy="119.82" r="2.25"/><circle fill="none" stroke="#BD8F2D" stroke-width=".8" stroke-miterlimit="10" cx="169" cy="118.986" r="2.25"/><path fill="none" stroke="#BD8F2D" stroke-width=".8" stroke-miterlimit="10" d="M161.625 121.236l31.62 18.415M171.25 119.82l27.55 16.617"/><circle fill="none" stroke="#BD8F2D" stroke-width=".8" stroke-miterlimit="10" cx="222.625" cy="106.676" r="2.25"/><path fill="none" stroke="#BD8F2D" stroke-width=".8" stroke-miterlimit="10" d="M224.875 106.676h10.76"/><circle fill="none" stroke="#BD8F2D" stroke-width=".8" stroke-miterlimit="10" cx="216.802" cy="112.654" r="2.25"/><path fill="none" stroke="#BD8F2D" stroke-width=".8" stroke-miterlimit="10" d="M219.052 112.654h16.583"/><circle fill="none" stroke="#BD8F2D" stroke-width=".8" stroke-miterlimit="10" cx="213.615" cy="117.986" r="2.25"/><circle fill="none" stroke="#BD8F2D" stroke-width=".8" stroke-miterlimit="10" cx="207" cy="120.07" r="2.25"/><circle fill="none" stroke="#BD8F2D" stroke-width=".8" stroke-miterlimit="10" cx="179.5" cy="117.154" r="2.25"/><path fill="none" stroke="#BD8F2D" stroke-width=".741" stroke-miterlimit="10" d="M213.615 120.236v7.892"/><path fill="none" stroke="#BD8F2D" stroke-width=".764" stroke-miterlimit="10" d="M207 122.32v9.372"/><path fill="none" stroke="#BD8F2D" stroke-width=".8" stroke-miterlimit="10" d="M180.8 118.986l22.912 14.608"/><g><text transform="translate(165.41 104.426)" font-family="'MyriadPro-Regular'" font-size="62.138">II</text></g></svg>