<?xml version="1.0" encoding="utf-8"?>
<!-- Generator: Adobe Illustrator 16.0.0, SVG Export Plug-In . SVG Version: 6.00 Build 0)  -->
<!DOCTYPE svg PUBLIC "-//W3C//DTD SVG 1.1//EN" "http://www.w3.org/Graphics/SVG/1.1/DTD/svg11.dtd">
<svg version="1.1" xmlns="http://www.w3.org/2000/svg" xmlns:xlink="http://www.w3.org/1999/xlink" x="0px" y="0px"
	 width="328.82px" height="153.07px" viewBox="0 0 328.82 153.07" enable-background="new 0 0 328.82 153.07" xml:space="preserve">
<g id="Layer_3">
	<polygon points="111.193,43.125 173.414,7.125 235.635,43.125 235.635,115.125 173.414,151.125 111.193,115.125 	"/>
</g>
<g id="Layer_2" display="none">
	
		<circle display="inline" fill="none" stroke="#BD8F2D" stroke-width="0.5" stroke-miterlimit="10" cx="115.303" cy="62.926" r="1.45"/>
	
		<circle display="inline" fill="none" stroke="#BD8F2D" stroke-width="0.5" stroke-miterlimit="10" cx="119.128" cy="66.75" r="1.451"/>
	
		<circle display="inline" fill="none" stroke="#BD8F2D" stroke-width="0.5" stroke-miterlimit="10" cx="123.348" cy="70.575" r="1.451"/>
	
		<circle display="inline" fill="none" stroke="#BD8F2D" stroke-width="0.5" stroke-miterlimit="10" cx="128.228" cy="74.134" r="1.451"/>
	
		<circle display="inline" fill="none" stroke="#BD8F2D" stroke-width="0.5" stroke-miterlimit="10" cx="134.162" cy="77.037" r="1.45"/>
	
		<circle display="inline" fill="none" stroke="#BD8F2D" stroke-width="0.5" stroke-miterlimit="10" cx="141.811" cy="79.673" r="1.451"/>
	<polyline display="inline" fill="none" stroke="#BD8F2D" stroke-width="0.5" stroke-miterlimit="10" points="116.754,62.926 
		153.943,62.926 153.812,61.475 161.325,61.226 161.197,58.837 233.068,58.837 233.068,62.002 232.013,61.937 232.128,66.155 
		230.042,66.093 230.105,59.761 228.123,59.761 228.123,66.486 225.881,66.486 225.881,59.563 223.836,59.563 223.836,67.475 
		221.199,67.475 221.199,59.628 218.957,59.628 218.957,68.069 216.32,68.069 216.32,59.563 213.946,59.563 213.946,68.728 
		195.462,82.576 195.052,94.726 205.574,98.827 212.544,106.205 212.544,114.131 128.228,114.131 	"/>
	<polyline display="inline" fill="none" stroke="#BD8F2D" stroke-width="0.5" stroke-miterlimit="10" points="120.579,66.75 
		155.306,66.75 155.364,64.062 163.218,64.156 163.13,60.376 212.407,60.376 212.407,66.75 210.605,68.552 210.605,61.958 
		208.407,61.958 208.407,69.871 206.386,71.762 206.386,61.871 204.012,61.871 203.748,73.387 201.286,75.585 201.286,61.871 
		198.385,61.871 198.385,77.564 196.1,79.673 196.1,61.958 193.198,61.958 193.198,95.719 204.628,100.291 210.342,106.444 
		198.121,106.444 198.121,111.281 200.056,111.281 200.056,107.764 201.989,107.764 201.989,111.281 204.188,111.281 
		204.188,107.676 206.386,107.676 206.386,111.281 208.583,111.281 208.583,107.764 210.781,107.764 210.781,112.511 
		128.228,112.511 	"/>
	<polyline display="inline" fill="none" stroke="#BD8F2D" stroke-width="0.5" stroke-miterlimit="10" points="124.799,70.575 
		157.065,70.575 157.065,66.179 165.064,66.179 165.064,62.223 191.44,62.223 191.528,97.038 203.572,101.698 206.737,105.038 
		198.474,105.038 197.319,103.821 203.66,103.763 202.643,102.712 196.407,102.795 194.845,101.628 201.109,101.652 
		198.077,100.686 193.55,100.642 192.056,99.851 195.396,99.851 192.979,98.489 190.868,98.489 189.856,97.61 189.856,110.05 
		191.354,110.05 191.354,100.467 192.584,101.169 192.584,110.05 193.792,110.05 193.771,101.918 194.914,103.149 194.873,110.05 
		195.978,110.05 195.969,103.676 197.084,105.119 197.067,111.062 128.228,111.062 	"/>
	<polyline display="inline" fill="none" stroke="#BD8F2D" stroke-width="0.5" stroke-miterlimit="10" points="129.678,74.134 
		159.02,74.134 159.02,68.2 166.934,68.2 166.934,64.113 189.417,64.113 189.417,95.959 187.836,95.959 187.934,109.675 
		186.318,109.675 186.385,95.565 184.934,94.84 185,109.675 183.286,109.675 183.22,94.575 181.637,94.575 181.571,109.675 
		179.922,109.675 179.988,94.445 178.302,94.988 178.235,109.675 176.691,109.675 176.71,95.894 174.911,96.785 174.846,109.675 
		172.998,109.675 173.064,97.939 171.12,99.456 171.12,109.675 169.24,109.675 169.216,101.194 167.526,102.521 167.626,109.675 
		166.043,109.675 166.056,103.916 164.164,105.521 164.131,109.708 128.228,109.675 	"/>
	<polyline display="inline" fill="none" stroke="#BD8F2D" stroke-width="0.5" stroke-miterlimit="10" points="135.612,77.037 
		161.5,77.037 161.5,70.575 168.515,70.575 168.384,66.156 186.979,66.156 187.186,94.471 185.164,93.456 185.164,67.838 
		183.583,67.838 183.583,93.456 181.571,93.456 181.571,67.838 179.922,67.838 179.922,93.456 178.011,94.047 178.011,67.838 
		176.494,67.838 176.71,94.445 174.582,95.697 174.582,67.838 172.933,67.838 172.933,96.421 171.371,97.545 171.371,67.838 
		169.703,67.838 169.703,98.664 162.582,104.664 162.515,108.028 128.228,108.028 	"/>
	<polyline display="inline" fill="none" stroke="#BD8F2D" stroke-width="0.5" stroke-miterlimit="10" points="143.261,79.673 
		163.703,79.673 163.703,72.685 168.119,72.685 168.119,74.134 165.021,74.134 165.021,75.585 168.119,75.585 168.119,77.037 
		165.021,77.037 165.021,78.488 168.119,78.488 168.119,80.202 165.021,80.108 165.021,81.844 168.119,81.866 168.119,83.717 
		165.021,83.717 166.494,85.279 168.119,85.279 168.119,87.091 168.119,94.047 156.185,98.995 150.844,104.532 154.031,104.465 
		157.373,100.115 168.119,95.131 168.119,96.693 158.559,101.411 156.538,104.465 158.647,104.465 159.614,102.489 168.119,97.604 
		168.119,98.636 160.999,104.334 160.999,107.17 159.57,107.17 159.57,105.28 158.318,105.302 158.318,107.193 156.911,107.193 
		156.911,105.302 155.724,105.302 155.724,107.193 154.515,107.193 154.515,105.302 153.306,105.302 153.306,107.193 
		152.317,107.193 152.317,105.302 151.062,105.302 151.067,107.301 150.251,107.279 150.25,106.159 128.228,106.137 	"/>
</g>
<g id="Layer_4">
	<path fill="#BD8F2D" d="M113,62.223c0,0,4.848,5.077,11.799,10.462c2.854,2.211,9.625,7.069,16.826,8.26
		c10.338,1.709,24.75,0.5,24.75,0.5l0.118,12.603c0,0-3.08,1.147-8.787,5.022s-7.457,5.875-7.457,5.875v9.187H171
		c0,0,4-4.312,10.5-4.437s10.125,4.437,10.125,4.437h20.919v-7.927c0,0-1.989-3.08-7.919-6.635s-9.564-5.098-9.564-5.098l0.41-12.15
		L214,69.124h19.068V58.837h-71.872L161,62.223H113z"/>
	<circle fill="none" stroke="#BD8F2D" stroke-width="0.8" stroke-miterlimit="10" cx="123.334" cy="83.929" r="2.25"/>
	<circle fill="none" stroke="#BD8F2D" stroke-width="0.8" stroke-miterlimit="10" cx="127.834" cy="90.429" r="2.25"/>
	<circle fill="none" stroke="#BD8F2D" stroke-width="0.8" stroke-miterlimit="10" cx="133.25" cy="96.512" r="2.25"/>
	<polyline fill="none" stroke="#BD8F2D" stroke-width="0.8" stroke-miterlimit="10" points="133.25,98.762 133.25,111.012 
		187.777,142.559 	"/>
	<polyline fill="none" stroke="#BD8F2D" stroke-width="0.8" stroke-miterlimit="10" points="127.834,92.679 127.834,112.574 
		183.053,145.292 	"/>
	<polyline fill="none" stroke="#BD8F2D" stroke-width="0.8" stroke-miterlimit="10" points="123.334,86.179 123.334,116.012 
		178.15,148.128 	"/>
	<path fill="none" stroke="#BD8F2D" stroke-width="0.8" stroke-miterlimit="10" d="M125.584,114.904"/>
	<path fill="none" stroke="#BD8F2D" stroke-width="0.8" stroke-miterlimit="10" d="M121.084,117.57"/>
	<path fill="none" stroke="#BD8F2D" stroke-width="0.8" stroke-miterlimit="10" d="M121.084,117.57"/>
	<circle fill="none" stroke="#BD8F2D" stroke-width="0.8" stroke-miterlimit="10" cx="230.541" cy="46.49" r="2.25"/>
	<circle fill="none" stroke="#BD8F2D" stroke-width="0.8" stroke-miterlimit="10" cx="218.362" cy="45.691" r="2.25"/>
	<circle fill="none" stroke="#BD8F2D" stroke-width="0.8" stroke-miterlimit="10" cx="206.961" cy="43.108" r="2.25"/>
	
		<line fill="none" stroke="#BD8F2D" stroke-width="0.8" stroke-miterlimit="10" x1="205.114" y1="42.202" x2="158.892" y2="15.459"/>
	<line fill="none" stroke="#BD8F2D" stroke-width="0.8" stroke-miterlimit="10" x1="216.802" y1="44.24" x2="163.616" y2="12.727"/>
	<line fill="none" stroke="#BD8F2D" stroke-width="0.8" stroke-miterlimit="10" x1="168.519" y1="9.89" x2="229.08" y2="45.358"/>
	<circle fill="none" stroke="#BD8F2D" stroke-width="0.8" stroke-miterlimit="10" cx="214.552" cy="75.32" r="2.25"/>
	<circle fill="none" stroke="#BD8F2D" stroke-width="0.8" stroke-miterlimit="10" cx="205.114" cy="80.57" r="2.25"/>
	<circle fill="none" stroke="#BD8F2D" stroke-width="0.8" stroke-miterlimit="10" cx="198.799" cy="88.179" r="2.25"/>
	<circle fill="none" stroke="#BD8F2D" stroke-width="0.8" stroke-miterlimit="10" cx="205.114" cy="94.929" r="2.25"/>
	<circle fill="none" stroke="#BD8F2D" stroke-width="0.8" stroke-miterlimit="10" cx="214.552" cy="99.945" r="2.25"/>
	<line fill="none" stroke="#BD8F2D" stroke-width="0.8" stroke-miterlimit="10" x1="216.802" y1="75.32" x2="235.635" y2="75.32"/>
	<line fill="none" stroke="#BD8F2D" stroke-width="0.8" stroke-miterlimit="10" x1="207.364" y1="80.57" x2="235.635" y2="80.57"/>
	
		<line fill="none" stroke="#BD8F2D" stroke-width="0.8" stroke-miterlimit="10" x1="201.049" y1="88.179" x2="235.635" y2="88.179"/>
	
		<line fill="none" stroke="#BD8F2D" stroke-width="0.8" stroke-miterlimit="10" x1="207.364" y1="94.929" x2="235.635" y2="94.929"/>
	
		<line fill="none" stroke="#BD8F2D" stroke-width="0.8" stroke-miterlimit="10" x1="216.802" y1="99.945" x2="235.635" y2="99.945"/>
	<circle fill="none" stroke="#BD8F2D" stroke-width="0.8" stroke-miterlimit="10" cx="115.75" cy="58.837" r="2.25"/>
	<circle fill="none" stroke="#BD8F2D" stroke-width="0.8" stroke-miterlimit="10" cx="123.875" cy="58.838" r="2.25"/>
	<circle fill="none" stroke="#BD8F2D" stroke-width="0.8" stroke-miterlimit="10" cx="132.25" cy="58.838" r="2.25"/>
	<circle fill="none" stroke="#BD8F2D" stroke-width="0.8" stroke-miterlimit="10" cx="140.375" cy="58.838" r="2.25"/>
	<circle fill="none" stroke="#BD8F2D" stroke-width="0.8" stroke-miterlimit="10" cx="181.75" cy="69.837" r="2.25"/>
	<circle fill="none" stroke="#BD8F2D" stroke-width="0.8" stroke-miterlimit="10" cx="189.875" cy="69.838" r="2.25"/>
	<circle fill="none" stroke="#BD8F2D" stroke-width="0.8" stroke-miterlimit="10" cx="148.75" cy="58.839" r="2.25"/>
	<circle fill="none" stroke="#BD8F2D" stroke-width="0.8" stroke-miterlimit="10" cx="156.875" cy="58.839" r="2.25"/>
	<polyline fill="none" stroke="#BC8F2D" stroke-miterlimit="10" points="156.875,56.589 156.875,52.57 202.25,52.57 202.25,44.82 
		153.371,18.721 	"/>
	<line fill="none" stroke="#BC8F2D" stroke-miterlimit="10" x1="115.75" y1="56.587" x2="115.75" y2="40.858"/>
	<line fill="none" stroke="#BC8F2D" stroke-miterlimit="10" x1="123.875" y1="56.588" x2="123.875" y2="35.787"/>
	<polyline fill="none" stroke="#BC8F2D" stroke-miterlimit="10" points="148.75,56.589 148.75,47.941 195.875,47.941 
		195.875,46.188 148.75,21.395 	"/>
	<polyline fill="none" stroke="#BC8F2D" stroke-miterlimit="10" points="140.375,56.588 140.375,43.108 181.75,43.441 
		142.625,24.938 	"/>
	<polyline fill="none" stroke="#BC8F2D" stroke-miterlimit="10" points="132.25,56.588 132.25,38.992 156.875,38.992 
		135.898,28.831 	"/>
	<circle fill="none" stroke="#BD8F2D" stroke-width="0.8" stroke-miterlimit="10" cx="160.514" cy="119.82" r="2.25"/>
	<circle fill="none" stroke="#BD8F2D" stroke-width="0.8" stroke-miterlimit="10" cx="169" cy="118.986" r="2.25"/>
	
		<line fill="none" stroke="#BD8F2D" stroke-width="0.8" stroke-miterlimit="10" x1="161.625" y1="121.236" x2="193.244" y2="139.651"/>
	
		<line fill="none" stroke="#BD8F2D" stroke-width="0.8" stroke-miterlimit="10" x1="171.25" y1="119.82" x2="198.799" y2="136.437"/>
	<circle fill="none" stroke="#BD8F2D" stroke-width="0.8" stroke-miterlimit="10" cx="222.625" cy="106.676" r="2.25"/>
	
		<line fill="none" stroke="#BD8F2D" stroke-width="0.8" stroke-miterlimit="10" x1="224.875" y1="106.676" x2="235.635" y2="106.676"/>
	<circle fill="none" stroke="#BD8F2D" stroke-width="0.8" stroke-miterlimit="10" cx="216.802" cy="112.654" r="2.25"/>
	
		<line fill="none" stroke="#BD8F2D" stroke-width="0.8" stroke-miterlimit="10" x1="219.052" y1="112.654" x2="235.635" y2="112.654"/>
	<circle fill="none" stroke="#BD8F2D" stroke-width="0.8" stroke-miterlimit="10" cx="213.615" cy="117.986" r="2.25"/>
	<circle fill="none" stroke="#BD8F2D" stroke-width="0.8" stroke-miterlimit="10" cx="207" cy="120.07" r="2.25"/>
	<circle fill="none" stroke="#BD8F2D" stroke-width="0.8" stroke-miterlimit="10" cx="179.5" cy="117.154" r="2.25"/>
	
		<line fill="none" stroke="#BD8F2D" stroke-width="0.7407" stroke-miterlimit="10" x1="213.615" y1="120.236" x2="213.615" y2="128.128"/>
	<line fill="none" stroke="#BD8F2D" stroke-width="0.7644" stroke-miterlimit="10" x1="207" y1="122.32" x2="207" y2="131.692"/>
	
		<line fill="none" stroke="#BD8F2D" stroke-width="0.8" stroke-miterlimit="10" x1="180.799" y1="118.986" x2="203.712" y2="133.594"/>
</g>
<g id="Layer_5">
	<text transform="matrix(1 0 0 1 165.4102 104.4263)" font-family="'MyriadPro-Regular'" font-size="62.1383">II</text>
</g>
</svg>
