<svg xmlns="http://www.w3.org/2000/svg" width="595.28" height="841.89"><circle fill="#F0F0F0" cx="297.64" cy="420.945" r="171.176"/><g fill="#282828"><path d="M202.454 304.889v23.896h25.203v-23.896h13.691v62.268h-13.691v-26.859h-25.203v26.859h-13.692v-62.268h13.692zM279.859 304.889l23.284 62.268h-14.212l-4.712-13.864h-23.284l-4.885 13.864h-13.778l23.547-62.268h14.04zm.786 38.198l-7.849-22.849h-.175l-8.11 22.849h16.134zM341.114 321.505c-.818-1.309-1.832-2.456-3.053-3.444-1.223-.99-2.603-1.758-4.144-2.314-1.536-.549-3.153-.828-4.839-.828-3.083 0-5.699.598-7.847 1.787-2.152 1.193-3.898 2.792-5.235 4.799-1.337 2.003-2.309 4.287-2.921 6.843-.61 2.56-.917 5.206-.917 7.937 0 2.617.307 5.161.917 7.633.612 2.472 1.584 4.695 2.921 6.669 1.337 1.978 3.083 3.564 5.235 4.752 2.147 1.193 4.764 1.788 7.847 1.788 4.188 0 7.457-1.276 9.81-3.835 2.357-2.56 3.793-5.93 4.317-10.118h13.257c-.349 3.897-1.25 7.413-2.705 10.554-1.453 3.137-3.373 5.812-5.755 8.023-2.385 2.21-5.173 3.894-8.37 5.058-3.201 1.163-6.716 1.744-10.554 1.744-4.767 0-9.055-.83-12.863-2.484-3.81-1.658-7.021-3.938-9.634-6.847-2.618-2.905-4.626-6.324-6.019-10.247-1.396-3.926-2.093-8.152-2.093-12.689 0-4.649.697-8.967 2.093-12.951 1.393-3.981 3.4-7.455 6.019-10.421 2.612-2.963 5.824-5.289 9.634-6.976 3.809-1.684 8.097-2.527 12.863-2.527 3.43 0 6.672.494 9.726 1.479 3.049.993 5.783 2.43 8.193 4.317 2.414 1.892 4.408 4.231 5.976 7.022 1.569 2.789 2.556 5.988 2.965 9.594h-13.257c-.232-1.571-.756-3.012-1.567-4.318zM374.143 304.889v25.815l24.327-25.815h17.094l-24.331 24.594 26.688 37.674h-17.182l-18.753-27.992-7.844 7.936v20.057h-13.694v-62.268h13.695zM195.252 407.1c.573 1.102 1.334 1.995 2.284 2.679.947.685 2.062 1.192 3.342 1.521 1.279.33 2.603.498 3.971.498.925 0 1.918-.077 2.978-.232 1.058-.155 2.053-.452 2.979-.896.926-.439 1.697-1.047 2.316-1.818.617-.771.926-1.752.926-2.945 0-1.28-.409-2.317-1.225-3.111-.815-.792-1.886-1.455-3.209-1.985-1.323-.53-2.824-.992-4.501-1.389s-3.373-.837-5.095-1.325c-1.766-.438-3.486-.979-5.162-1.622-1.677-.637-3.176-1.464-4.501-2.482-1.323-1.011-2.394-2.281-3.208-3.803-.818-1.521-1.226-3.363-1.226-5.525 0-2.426.519-4.533 1.557-6.32 1.035-1.787 2.393-3.278 4.069-4.467 1.676-1.191 3.574-2.073 5.689-2.649 2.119-.572 4.237-.86 6.354-.86 2.469 0 4.842.278 7.114.828 2.271.553 4.29 1.444 6.054 2.682 1.766 1.236 3.166 2.812 4.203 4.731 1.037 1.92 1.556 4.246 1.556 6.983h-10.06c-.088-1.412-.386-2.582-.893-3.509-.508-.927-1.181-1.654-2.019-2.184-.839-.53-1.798-.902-2.879-1.125-1.08-.219-2.262-.329-3.54-.329-.839 0-1.677.086-2.516.265-.838.175-1.599.484-2.282.924-.686.442-1.248.996-1.688 1.654-.442.664-.662 1.503-.662 2.518 0 .924.176 1.677.529 2.249.353.572 1.048 1.101 2.085 1.586 1.035.488 2.47.973 4.301 1.458 1.831.484 4.225 1.102 7.18 1.851.882.177 2.107.498 3.674.959 1.565.466 3.12 1.206 4.665 2.218 1.545 1.017 2.879 2.375 4.006 4.071 1.124 1.7 1.687 3.872 1.687 6.518 0 2.161-.421 4.168-1.258 6.022-.839 1.853-2.084 3.452-3.738 4.799-1.655 1.344-3.706 2.395-6.156 3.144-2.447.749-5.282 1.124-8.504 1.124-2.604 0-5.128-.323-7.576-.959-2.449-.64-4.611-1.645-6.485-3.012-1.876-1.367-3.366-3.112-4.468-5.229-1.104-2.117-1.632-4.634-1.588-7.545h10.059c.001 1.589.287 2.934.861 4.039zM241.681 371.494l11.054 32.494h.132l10.455-32.494h14.625v47.252h-9.729v-33.486h-.132l-11.581 33.486h-8.008l-11.581-33.154h-.132v33.154h-9.729v-47.252h14.626zM293.876 371.494v47.252h-10.389v-47.252h10.389zM295.323 380.231v-8.738h38.717v8.738h-14.161v38.514h-10.39v-38.514h-14.166zM345.881 371.494v18.135h19.122v-18.135h10.392v47.252h-10.392v-20.383h-19.122v20.383h-10.392v-47.252h10.392zM389.083 407.1c.576 1.102 1.339 1.995 2.288 2.679.944.685 2.062 1.192 3.341 1.521 1.281.33 2.601.498 3.968.498.929 0 1.92-.077 2.98-.232 1.06-.155 2.052-.452 2.979-.896.925-.439 1.696-1.047 2.314-1.818.619-.771.927-1.752.927-2.945 0-1.28-.41-2.317-1.225-3.111-.813-.792-1.888-1.455-3.209-1.985-1.321-.53-2.823-.992-4.502-1.389-1.676-.397-3.372-.837-5.093-1.325-1.767-.438-3.489-.979-5.163-1.622-1.676-.637-3.175-1.464-4.5-2.482-1.323-1.011-2.395-2.281-3.209-3.803-.817-1.521-1.226-3.363-1.226-5.525 0-2.426.521-4.533 1.556-6.32 1.037-1.787 2.393-3.278 4.071-4.467 1.674-1.191 3.573-2.073 5.691-2.649 2.114-.572 4.234-.86 6.351-.86 2.474 0 4.846.278 7.116.828 2.271.553 4.288 1.444 6.052 2.682 1.764 1.236 3.167 2.812 4.204 4.731 1.038 1.92 1.555 4.246 1.555 6.983h-10.057c-.089-1.412-.387-2.582-.894-3.509-.508-.927-1.181-1.654-2.02-2.184-.837-.53-1.798-.902-2.877-1.125-1.081-.219-2.262-.329-3.541-.329-.841 0-1.678.086-2.513.265-.841.175-1.604.484-2.286.924-.685.442-1.247.996-1.686 1.654-.442.664-.664 1.503-.664 2.518 0 .924.176 1.677.53 2.249.353.572 1.047 1.101 2.084 1.586 1.037.488 2.473.973 4.302 1.458 1.828.484 4.227 1.102 7.179 1.851.883.177 2.106.498 3.674.959 1.567.466 3.119 1.206 4.664 2.218 1.544 1.017 2.883 2.375 4.006 4.071 1.125 1.7 1.688 3.872 1.688 6.518 0 2.161-.419 4.168-1.257 6.022-.837 1.853-2.086 3.452-3.738 4.799-1.655 1.344-3.707 2.395-6.157 3.144-2.444.749-5.281 1.124-8.5 1.124-2.604 0-5.131-.323-7.581-.959-2.448-.64-4.608-1.645-6.483-3.012-1.876-1.367-3.367-3.112-4.469-5.229-1.101-2.117-1.632-4.634-1.587-7.545h10.057c.001 1.589.289 2.934.86 4.039z"/></g><path fill="#4879BC" d="M187.434 446.676v-22.742h144.216v12.625h91.099s-2.887 14.441-38.001 21.561c-25.982 5.285-53.098 3.705-53.098 34.035 0 30.322 37.955 37.906 37.955 37.906v15.164h-53.133s0-22.748-22.771-22.748c-22.768 0-22.768 22.748-22.768 22.748h-53.129v-15.164s37.937-7.584 37.937-37.906c0-37.899-68.307-45.479-68.307-45.479z"/></svg>