<svg id="Layer_1" xmlns="http://www.w3.org/2000/svg" viewBox="0 0 124.4 144"><style>.st0{display:none}.st1{display:inline;fill:none;stroke:#bd8f2d;stroke-width:.5;stroke-miterlimit:10}.st2{fill:#bd8f2d}.st3{stroke:#bd8f2d;stroke-width:.8}.st3,.st4{fill:none;stroke-miterlimit:10}.st4{stroke:#bc8f2d}.st5{stroke-width:.7407}.st5,.st6{fill:none;stroke:#bd8f2d;stroke-miterlimit:10}.st6{stroke-width:.7644}</style><path d="M0 36L62.2 0l62.2 36v72l-62.2 36L0 108z" id="Layer_3"/><g id="Layer_2" class="st0"><circle class="st1" cx="4.1" cy="55.8" r="1.4"/><circle class="st1" cx="7.9" cy="59.6" r="1.5"/><circle class="st1" cx="12.2" cy="63.4" r="1.5"/><circle class="st1" cx="17" cy="67" r="1.5"/><circle class="st1" cx="23" cy="69.9" r="1.4"/><circle class="st1" cx="30.6" cy="72.5" r="1.5"/><path class="st1" d="M5.6 55.8h37.1l-.1-1.5 7.5-.2-.1-2.4h71.9v3.2l-1.1-.1.1 4.2h-2.1l.1-6.4h-2v6.8h-2.2v-7h-2.1v7.9H110v-7.8h-2.2v8.4h-2.7v-8.5h-2.3v9.2L84.3 75.5l-.4 12.1 10.5 4.1 7 7.4v7.9H17"/><path class="st1" d="M9.4 59.6h34.7l.1-2.7 7.8.1-.1-3.7h49.3v6.3l-1.8 1.8v-6.6h-2.2v7.9l-2 1.9v-9.9h-2.4l-.2 11.6-2.5 2.2V54.7h-2.9v15.7l-2.3 2.1V54.8H82v33.8l11.4 4.6 5.7 6.1H86.9v4.9h2v-3.6h1.9v3.6H93v-3.6h2.2v3.6h2.2v-3.6h2.2v4.8H17"/><path class="st1" d="M13.6 63.4h32.3v-4.3h8v-4h26.3l.1 34.8 12.1 4.7 3.1 3.3h-8.2l-1.2-1.2 6.4-.1-1-1-6.3.1-1.5-1.2h6.2l-3-.9-4.5-.1-1.5-.8h3.3l-2.4-1.3h-2.1l-1-.9v12.4h1.5v-9.6l1.2.7v8.9h1.2v-8.1l1.1 1.2v6.9h1.1v-6.3l1.1 1.4v5.9H17"/><path class="st1" d="M18.5 67h29.3v-5.9h7.9V57h22.5v31.8h-1.6l.1 13.8h-1.6l.1-14.2-1.5-.7.1 14.9h-1.7L72 87.4h-1.6v15.2h-1.7l.1-15.3-1.7.6-.1 14.7h-1.5V88.8l-1.8.9v12.9h-1.9l.1-11.8-2 1.5v10.3H58v-8.5l-1.7 1.3.1 7.2h-1.6l.1-5.8-1.9 1.6-.1 4.2H17"/><path class="st1" d="M24.4 69.9h25.9v-6.5h7l-.1-4.4h18.6l.2 28.3-2-1V60.7h-1.6v25.6h-2V60.7h-1.7v25.6l-1.9.6V60.7h-1.5l.2 26.6-2.1 1.3V60.7h-1.7v28.6l-1.5 1.1V60.7h-1.7v30.8l-7.1 6-.1 3.4H17"/><path class="st1" d="M32.1 72.5h20.4v-6.9h4.4V67h-3.1v1.5h3.1v1.4h-3.1v1.5h3.1v1.7l-3.1-.1v1.7h3.1v1.9h-3.1l1.5 1.6h1.6V86.9l-11.9 5-5.3 5.5 3.1-.1 3.4-4.3 10.7-5v1.6l-9.5 4.7-2.1 3h2.2l.9-1.9 8.5-4.9v1l-7.1 5.7v2.8h-1.4v-1.8h-1.3v1.9h-1.4v-1.9h-1.2v1.9h-1.2v-1.9h-1.2v1.9h-1v-1.9h-1.2v2h-.8V99H17"/></g><g id="Layer_4"><path class="st2" d="M8.6 57.6s3.4 5.8 9.6 10.6c2.6 2 7.5 4.8 14.3 6.4 9.1 2.2 21.4 3.7 21.4 3.7L54 86s-2.8 1-7.9 4.5c-5.1 3.5-6.7 5.3-6.7 5.3v8.2H58s3.6-3.9 9.4-4 9.1 4 9.1 4h18.7v-7.1s-1.8-2.8-7.1-5.9c-5.3-3.2-8.2-4.9-8.2-4.9v-7.8l16.6-14.6h17.1v-9.2H49.3l-.2 3H8.6z"/><circle class="st3" cx="12.1" cy="76.8" r="2.2"/><circle class="st3" cx="16.6" cy="83.3" r="2.2"/><circle class="st3" cx="22.1" cy="89.4" r="2.2"/><path class="st3" d="M22.1 91.6v12.3l54.5 31.5"/><path class="st3" d="M16.6 85.6v19.8l55.3 32.8"/><path class="st3" d="M12.1 79.1v29.8L67 141"/><circle class="st3" cx="119.3" cy="39.4" r="2.2"/><circle class="st3" cx="107.2" cy="38.6" r="2.2"/><circle class="st3" cx="95.8" cy="36" r="2.2"/><path class="st3" d="M93.9 35.1L47.7 8.3M105.6 37.1L52.4 5.6M57.3 2.8l60.6 35.4"/><circle class="st3" cx="103.4" cy="68.2" r="2.2"/><circle class="st3" cx="93.9" cy="73.4" r="2.2"/><circle class="st3" cx="87.6" cy="81.1" r="2.2"/><circle class="st3" cx="93.9" cy="87.8" r="2.2"/><circle class="st3" cx="103.4" cy="92.8" r="2.2"/><path class="st3" d="M105.6 68.2h18.8M96.2 73.4h28.2M89.9 81.1h34.5M96.2 87.8h28.2M105.6 92.8h18.8"/><circle class="st3" cx="4.6" cy="51.7" r="2.2"/><circle class="st3" cx="12.7" cy="51.7" r="2.2"/><circle class="st3" cx="21.1" cy="51.7" r="2.2"/><circle class="st3" cx="29.2" cy="51.7" r="2.2"/><circle class="st3" cx="37.6" cy="51.7" r="2.2"/><circle class="st3" cx="45.7" cy="51.7" r="2.2"/><path class="st4" d="M45.7 49.5v-4.1h45.4v-7.7L42.2 11.6M4.6 49.5V33.7M12.7 49.5V28.7"/><path class="st4" d="M37.6 49.5v-8.7h47.1v-1.7L37.6 14.3"/><path class="st4" d="M29.2 49.5V36l41.4.3-39.2-18.5"/><path class="st4" d="M21.1 49.5V31.9h24.6l-21-10.2"/><circle class="st3" cx="49.3" cy="112.7" r="2.2"/><circle class="st3" cx="57.8" cy="111.9" r="2.2"/><path class="st3" d="M50.4 114.1l31.7 18.4M60.1 112.7l27.5 16.6"/><circle class="st3" cx="111.4" cy="99.6" r="2.2"/><path class="st3" d="M113.7 99.6h10.7"/><circle class="st3" cx="105.6" cy="105.5" r="2.2"/><path class="st3" d="M107.9 105.5h16.5"/><circle class="st3" cx="102.4" cy="110.9" r="2.2"/><circle class="st3" cx="95.8" cy="112.9" r="2.2"/><circle class="st3" cx="68.3" cy="110" r="2.2"/><path class="st5" d="M102.4 113.1v7.9"/><path class="st6" d="M95.8 115.2v9.4"/><path class="st3" d="M69.6 111.9l22.9 14.6"/></g><path d="M59.9 65.6h4.7V90h-4.7zM69.5 65.6h4.7V90h-4.7z"/></svg>