<svg xmlns="http://www.w3.org/2000/svg" width="595.28" height="841.89"><circle fill="#F0F0F0" cx="297.64" cy="420.945" r="171.176"/><path d="M202.454 304.89v23.895h25.203V304.89h13.69v62.267h-13.69v-26.86h-25.203v26.86h-13.692V304.89h13.692zm77.405 0l23.283 62.267H288.93l-4.71-13.864h-23.285l-4.885 13.864h-13.778l23.547-62.268h14.04zm.785 38.197l-7.85-22.85h-.174l-8.11 22.85h16.135zm60.47-21.582a13.82 13.82 0 0 0-3.054-3.444 14.288 14.288 0 0 0-8.983-3.142c-3.082 0-5.698.6-7.846 1.788-2.15 1.193-3.897 2.792-5.234 4.8-1.337 2.002-2.31 4.286-2.92 6.842a34.128 34.128 0 0 0-.918 7.937c0 2.617.307 5.16.917 7.633.612 2.472 1.584 4.695 2.92 6.67 1.338 1.977 3.084 3.563 5.236 4.75 2.148 1.194 4.765 1.79 7.848 1.79 4.188 0 7.457-1.277 9.81-3.836 2.357-2.56 3.793-5.93 4.317-10.118h13.257c-.35 3.897-1.25 7.413-2.705 10.554-1.453 3.137-3.373 5.812-5.755 8.023-2.385 2.21-5.173 3.895-8.37 5.06-3.2 1.162-6.716 1.743-10.554 1.743-4.767 0-9.055-.83-12.863-2.484-3.81-1.66-7.02-3.94-9.634-6.848-2.617-2.905-4.625-6.324-6.018-10.247-1.396-3.926-2.093-8.152-2.093-12.69 0-4.648.696-8.966 2.092-12.95 1.393-3.98 3.4-7.455 6.02-10.42 2.61-2.964 5.823-5.29 9.633-6.977 3.81-1.684 8.097-2.527 12.863-2.527 3.43 0 6.672.495 9.726 1.48 3.05.993 5.783 2.43 8.193 4.317 2.414 1.892 4.408 4.23 5.976 7.022 1.57 2.788 2.556 5.987 2.965 9.593H342.68a11.2 11.2 0 0 0-1.566-4.318zm33.028-16.616v25.814l24.327-25.815h17.094l-24.33 24.593 26.687 37.674h-17.18l-18.754-27.992-7.844 7.936v20.058h-13.694V304.89h13.695zM195.253 407.1c.572 1.102 1.333 1.995 2.283 2.68.947.684 2.062 1.19 3.342 1.52 1.28.33 2.603.498 3.97.498.926 0 1.92-.077 2.98-.232a10.306 10.306 0 0 0 2.978-.896 6.495 6.495 0 0 0 2.316-1.818c.617-.77.926-1.752.926-2.945 0-1.28-.41-2.317-1.225-3.11-.815-.793-1.886-1.456-3.21-1.986-1.322-.53-2.823-.99-4.5-1.388s-3.373-.837-5.095-1.325a43.892 43.892 0 0 1-5.162-1.622c-1.677-.637-3.176-1.464-4.5-2.482a11.617 11.617 0 0 1-3.21-3.803c-.817-1.52-1.225-3.363-1.225-5.525 0-2.426.52-4.533 1.558-6.32a14.048 14.048 0 0 1 4.07-4.467c1.675-1.19 3.573-2.073 5.688-2.65 2.12-.57 4.237-.86 6.354-.86 2.47 0 4.842.28 7.114.83 2.27.552 4.29 1.443 6.054 2.68a13.555 13.555 0 0 1 4.203 4.732c1.038 1.92 1.557 4.246 1.557 6.983h-10.06c-.088-1.412-.386-2.582-.893-3.51-.508-.926-1.18-1.653-2.02-2.183-.838-.53-1.797-.902-2.878-1.125-1.08-.22-2.262-.33-3.54-.33-.84 0-1.677.087-2.516.266-.838.176-1.6.485-2.282.925a5.764 5.764 0 0 0-1.688 1.654c-.442.663-.662 1.502-.662 2.517 0 .924.176 1.677.53 2.25.352.57 1.047 1.1 2.084 1.585 1.035.488 2.47.973 4.3 1.458 1.832.484 4.226 1.102 7.18 1.85.883.178 2.108.5 3.675.96 1.565.466 3.12 1.206 4.665 2.218 1.545 1.017 2.88 2.375 4.006 4.07 1.124 1.7 1.687 3.873 1.687 6.52 0 2.16-.42 4.167-1.258 6.02-.84 1.854-2.084 3.453-3.738 4.8-1.656 1.344-3.707 2.395-6.157 3.144-2.447.75-5.282 1.124-8.504 1.124a30 30 0 0 1-7.577-.96c-2.45-.64-4.61-1.644-6.485-3.01-1.876-1.368-3.366-3.113-4.468-5.23-1.104-2.117-1.632-4.634-1.588-7.545h10.06c0 1.59.286 2.935.86 4.04zm46.428-35.606l11.055 32.494h.132l10.455-32.494h14.625v47.252h-9.73V385.26h-.13l-11.582 33.486h-8.008l-11.58-33.154h-.133v33.154h-9.73v-47.252h14.627zm52.196 0v47.252h-10.39v-47.252h10.39zm1.447 8.737v-8.737h38.717v8.738h-14.16v38.515h-10.39V380.23h-14.167zm50.558-8.736v18.135h19.123v-18.136h10.392v47.252h-10.392v-20.383H345.88v20.383h-10.39v-47.252h10.39zm43.203 35.606c.576 1.102 1.34 1.995 2.288 2.68.945.684 2.063 1.19 3.342 1.52 1.28.33 2.6.498 3.968.498.93 0 1.92-.077 2.98-.232a10.296 10.296 0 0 0 2.98-.896 6.488 6.488 0 0 0 2.313-1.818c.62-.77.927-1.752.927-2.945 0-1.28-.41-2.317-1.225-3.11-.813-.793-1.888-1.456-3.21-1.986-1.32-.53-2.822-.99-4.5-1.388a120.3 120.3 0 0 1-5.094-1.325 43.73 43.73 0 0 1-5.162-1.622c-1.676-.637-3.175-1.464-4.5-2.482a11.62 11.62 0 0 1-3.21-3.803c-.816-1.52-1.225-3.363-1.225-5.525 0-2.426.52-4.533 1.556-6.32a14.054 14.054 0 0 1 4.07-4.467c1.674-1.19 3.573-2.073 5.69-2.65a24.242 24.242 0 0 1 6.352-.86c2.474 0 4.846.28 7.116.83 2.27.552 4.288 1.443 6.052 2.68a13.577 13.577 0 0 1 4.204 4.732c1.038 1.92 1.555 4.246 1.555 6.983H406.29c-.09-1.412-.387-2.582-.894-3.51-.508-.926-1.18-1.653-2.02-2.183-.837-.53-1.798-.902-2.877-1.125-1.08-.22-2.26-.33-3.54-.33-.84 0-1.678.087-2.513.266a6.694 6.694 0 0 0-2.286.925 5.757 5.757 0 0 0-1.685 1.654c-.442.663-.664 1.502-.664 2.517 0 .924.177 1.677.53 2.25.354.57 1.048 1.1 2.085 1.585 1.037.488 2.473.973 4.302 1.458 1.828.484 4.227 1.102 7.18 1.85.882.178 2.105.5 3.673.96 1.567.466 3.12 1.206 4.664 2.218 1.544 1.017 2.883 2.375 4.006 4.07 1.125 1.7 1.688 3.873 1.688 6.52 0 2.16-.42 4.167-1.257 6.02-.836 1.854-2.085 3.453-3.737 4.8-1.655 1.344-3.707 2.395-6.157 3.144-2.444.75-5.28 1.124-8.5 1.124a30.05 30.05 0 0 1-7.58-.96c-2.45-.64-4.61-1.644-6.484-3.01-1.876-1.368-3.367-3.113-4.47-5.23-1.1-2.117-1.63-4.634-1.586-7.545h10.057c0 1.59.29 2.935.86 4.04z" fill="#282828"/><path fill="#4879BC" d="M187.434 446.676v-22.742H331.65v12.625h91.1s-2.888 14.44-38.002 21.56c-25.982 5.285-53.098 3.705-53.098 34.035 0 30.322 37.955 37.906 37.955 37.906v15.165h-53.133s0-22.748-22.77-22.748-22.77 22.748-22.77 22.748h-53.128V530.06s37.937-7.583 37.937-37.905c0-37.9-68.306-45.48-68.306-45.48z"/></svg>